<svg width="80" height="81" viewBox="0 0 80 81" fill="none" xmlns="http://www.w3.org/2000/svg">
  <path d="M40.0318 61.3248C37.4142 61.3467 34.8223 60.8048 32.4306 59.7356C30.1111 58.6931 28.0249 57.1908 26.2971 55.3188C24.5391 53.4148 23.1521 51.1964 22.2081 48.7786C21.2206 46.2621 20.7219 43.5788 20.7389 40.8738C20.7389 37.9302 21.2613 35.2204 22.3059 32.7444C23.307 30.3354 24.7613 28.1432 26.5892 26.2879C28.3667 24.4847 30.4715 23.0402 32.7898 22.0325C35.2761 20.9511 37.9697 20.4358 40.6774 20.5233C43.3852 20.6108 46.0402 21.2991 48.4522 22.5387C51.1217 23.8887 53.4457 25.9142 55.424 28.6152L50.2265 31.4517C48.9723 29.8358 47.3688 28.5277 45.5373 27.6262C43.8338 26.7793 41.9602 26.3346 40.0595 26.3261C38.2825 26.3185 36.5249 26.6975 34.9074 27.4369C33.2843 28.1778 31.8201 29.2289 30.5964 30.5316C29.3304 31.8784 28.3286 33.4531 27.6435 35.173C26.2161 38.8475 26.2062 42.9254 27.6158 46.6069C28.2846 48.3209 29.2724 49.8911 30.5263 51.2336C31.7475 52.5462 33.2125 53.606 34.8387 54.3532C36.4864 55.1061 38.2773 55.4896 40.0873 55.4773C41.4409 55.4821 42.7854 55.2538 44.0624 54.8023C45.3342 54.3485 46.5272 53.6968 47.5979 52.8712C48.7003 52.0252 49.668 51.0153 50.4675 49.8762C51.3057 48.6827 51.9673 47.3734 52.4317 45.9891H44.1179V40.818H59.2633C59.3172 43.5328 58.8265 46.2307 57.8204 48.7507C56.8562 51.1707 55.4511 53.3887 53.6774 55.2909C51.9372 57.1574 49.8493 58.6625 47.5322 59.721C45.1769 60.7943 42.6179 61.3415 40.0318 61.3248Z" fill="currentColor"/>
  <path d="M20.5812 71.3823C18.0515 71.4108 15.5629 70.738 13.3889 69.438C11.2606 68.1716 9.48728 66.3826 8.23532 64.2391C6.95675 62.0625 6.2947 59.5761 6.32078 57.0488V47.0236C6.32005 46.6319 6.22704 46.246 6.04936 45.8973C5.87169 45.5487 5.6144 45.2473 5.29853 45.0177C4.6152 44.5073 3.87758 44.0747 3.09923 43.7279C2.33014 43.387 1.60492 42.9539 0.939356 42.438C0.634732 42.2035 0.39059 41.8989 0.227445 41.5498C0.0643007 41.2008 -0.0130804 40.8174 0.00180439 40.4321C0.00180439 39.5595 0.314321 38.8703 0.939356 38.3646C1.60094 37.8373 2.32675 37.3969 3.09923 37.0542C3.8743 36.7091 4.6114 36.2837 5.29853 35.7849C5.61162 35.5669 5.86794 35.2765 6.04586 34.9381C6.22377 34.5997 6.31807 34.2233 6.32078 33.8406V23.7699C6.2947 21.2426 6.95675 18.7562 8.23532 16.5797C9.48641 14.4354 11.2599 12.6463 13.3889 11.3807C15.5634 10.0822 18.0519 9.41101 20.5812 9.4408H23.9634V16.3185H20.5812C19.2771 16.304 17.9942 16.6507 16.8733 17.3207C15.7666 17.982 14.8423 18.9112 14.1848 20.0236C13.5047 21.1528 13.1507 22.45 13.1626 23.7699V34.0856C13.1071 35.0962 12.8695 35.9218 12.4499 36.5626C11.9921 37.2416 11.4347 37.8471 10.7968 38.3587C10.1153 38.9173 9.35444 39.6065 8.51424 40.4262C9.38267 41.2988 10.1503 42.0154 10.8172 42.576C11.4287 43.0793 11.976 43.6564 12.447 44.2943C12.8676 44.8812 13.1051 45.7069 13.1597 46.7712V57.043C13.1465 58.3599 13.4919 59.6553 14.1585 60.7892C14.8047 61.9035 15.723 62.8338 16.8266 63.4922C17.9612 64.1713 19.2607 64.5218 20.5812 64.5047H23.9634V71.3823H20.5812Z" fill="currentColor"/>
  <path d="M56.046 71.3823V64.5046H59.4268C60.7372 64.518 62.0263 64.1715 63.1551 63.5024C64.2704 62.8493 65.1994 61.9184 65.8523 60.7995C66.519 59.6656 66.8644 58.3701 66.8512 57.0532V46.7815C66.9057 45.7181 67.1365 44.8925 67.5434 44.3045C68.0062 43.6598 68.5545 43.0817 69.1732 42.5862C69.8547 42.0276 70.6292 41.3111 71.4966 40.4365C70.7778 39.7035 70.0202 39.0099 69.2272 38.3587C68.5802 37.8493 68.0164 37.2413 67.5566 36.5567C67.136 35.9169 66.8984 35.0913 66.8439 34.0798V23.764C66.8579 22.4498 66.5151 21.1567 65.8523 20.0236C65.2018 18.9058 64.2759 17.975 63.1638 17.3207C62.0323 16.6508 60.74 16.3042 59.4268 16.3185H56.046V9.44079H59.4268C61.9564 9.41256 64.4449 10.0853 66.619 11.3851C68.7477 12.6511 70.5211 14.4401 71.7726 16.5841C73.0512 18.7606 73.7133 21.247 73.6872 23.7743V33.845C73.7016 34.2253 73.801 34.5976 73.9779 34.9341C74.1549 35.2707 74.4049 35.5629 74.7094 35.7893C75.3837 36.2968 76.115 36.7228 76.8883 37.0586C77.6676 37.3952 78.4 37.8322 79.0671 38.3587C79.6922 38.8635 80.0047 39.5526 80.0047 40.4262C80.0196 40.8116 79.9422 41.1949 79.779 41.5439C79.6159 41.893 79.3718 42.1976 79.0671 42.4322C78.3961 42.9509 77.6638 43.3841 76.8868 43.722C76.1101 44.0595 75.3782 44.4928 74.708 45.0118C74.4009 45.2497 74.15 45.5529 73.9732 45.8997C73.7965 46.2465 73.6983 46.6283 73.6857 47.0177V57.0532C73.7118 59.5805 73.0498 62.0669 71.7712 64.2435C70.5189 66.3868 68.7456 68.1756 66.6176 69.4424C64.4434 70.7404 61.9555 71.4116 59.4268 71.3823H56.046Z" fill="currentColor"/>
</svg>
